# xmcd
#
# Track frame offsets: 
#        150
#        23055
#        34200
#        60645
#        71968
#        96941
#        112708
#        124589
#        142063
#        162068
#        181248
#
# Disc length: 2574 seconds
#
# Revision: 2
# Processed by: cddbd v1.5.2PL0 Copyright (c) Steve Scherf et al.
# Submitted via: ExactAudioCopyFreeDBPlugin 1.0
#
DISCID=920a0c0b
DTITLE=Innes Sibun - Farmhouse Blues
DYEAR=2005
DGENRE=Blues
TTITLE0=Sooner Or Later
TTITLE1=Speak To Me
TTITLE2=So Tired Of Living
TTITLE3=Don`t You Lie To Me
TTITLE4=Desert Rain
TTITLE5=Natural High
TTITLE6=Midlife Crisis Blues
TTITLE7=All Your Love
TTITLE8=I Must Be Crazy
TTITLE9=I'm Ready
TTITLE10=Station Blues
EXTD=
EXTT0=
EXTT1=
EXTT2=
EXTT3=
EXTT4=
EXTT5=
EXTT6=
EXTT7=
EXTT8=
EXTT9=
EXTT10=
PLAYORDER=
